<?xml version="1.0" encoding="UTF-8"?>
<!DOCTYPE svg PUBLIC "-//W3C//DTD SVG 1.1//EN" "http://www.w3.org/Graphics/SVG/1.1/DTD/svg11.dtd">
<svg xmlns="http://www.w3.org/2000/svg" version="1.1" width="1482px" height="1504px" style="shape-rendering:geometricPrecision; text-rendering:geometricPrecision; image-rendering:optimizeQuality; fill-rule:evenodd; clip-rule:evenodd" xmlns:xlink="http://www.w3.org/1999/xlink">
<g><path style="opacity:0.98" fill="#000000" d="M 1121.5,426.5 C 1121.5,394.167 1121.5,361.833 1121.5,329.5C 1137.68,329.83 1153.68,329.496 1169.5,328.5C 1169.5,279.833 1169.5,231.167 1169.5,182.5C 1153.17,182.5 1136.83,182.5 1120.5,182.5C 1120.5,231.167 1120.5,279.833 1120.5,328.5C 1104.5,328.5 1088.5,328.5 1072.5,328.5C 1072.17,328.5 1071.83,328.5 1071.5,328.5C 1071.5,279.5 1071.5,230.5 1071.5,181.5C 1087.83,181.5 1104.17,181.5 1120.5,181.5C 1120.5,165.5 1120.5,149.5 1120.5,133.5C 1137.17,133.5 1153.83,133.5 1170.5,133.5C 1170.5,149.5 1170.5,165.5 1170.5,181.5C 1186.5,181.5 1202.5,181.5 1218.5,181.5C 1218.5,230.833 1218.5,280.167 1218.5,329.5C 1202.5,329.5 1186.5,329.5 1170.5,329.5C 1170.5,361.833 1170.5,394.167 1170.5,426.5C 1154.17,426.5 1137.83,426.5 1121.5,426.5 Z"/></g>
<g><path style="opacity:1" fill="#00670f" d="M 1169.5,328.5 C 1169.17,328.5 1168.83,328.5 1168.5,328.5C 1168.5,280.167 1168.5,231.833 1168.5,183.5C 1152.83,183.5 1137.17,183.5 1121.5,183.5C 1121.5,231.833 1121.5,280.167 1121.5,328.5C 1121.17,328.5 1120.83,328.5 1120.5,328.5C 1120.5,279.833 1120.5,231.167 1120.5,182.5C 1136.83,182.5 1153.17,182.5 1169.5,182.5C 1169.5,231.167 1169.5,279.833 1169.5,328.5 Z"/></g>
<g><path style="opacity:1" fill="#009219" d="M 1168.5,328.5 C 1152.83,328.5 1137.17,328.5 1121.5,328.5C 1121.5,280.167 1121.5,231.833 1121.5,183.5C 1137.17,183.5 1152.83,183.5 1168.5,183.5C 1168.5,231.833 1168.5,280.167 1168.5,328.5 Z"/></g>
<g><path style="opacity:0.985" fill="#000000" d="M 829.5,328.5 C 764.5,328.5 699.5,328.5 634.5,328.5C 634.167,328.5 633.833,328.5 633.5,328.5C 633.5,312.167 633.5,295.833 633.5,279.5C 698.833,279.5 764.167,279.5 829.5,279.5C 829.5,295.833 829.5,312.167 829.5,328.5 Z"/></g>
<g><path style="opacity:0.997" fill="#000000" d="M 829.5,328.5 C 878.167,328.5 926.833,328.5 975.5,328.5C 975.5,344.5 975.5,360.5 975.5,376.5C 926.833,376.5 878.167,376.5 829.5,376.5C 829.5,360.5 829.5,344.5 829.5,328.5 Z"/></g>
<g><path style="opacity:0.985" fill="#000000" d="M 1071.5,328.5 C 1071.5,344.5 1071.5,360.5 1071.5,376.5C 1055.32,376.17 1039.32,376.504 1023.5,377.5C 1023.5,377.833 1023.5,378.167 1023.5,378.5C 1023.5,394.167 1023.5,409.833 1023.5,425.5C 1007.5,425.5 991.5,425.5 975.5,425.5C 975.5,409.167 975.5,392.833 975.5,376.5C 991.167,376.5 1006.83,376.5 1022.5,376.5C 1022.5,360.5 1022.5,344.5 1022.5,328.5C 1038.83,328.5 1055.17,328.5 1071.5,328.5 Z"/></g>
<g><path style="opacity:1" fill="#009119" d="M 634.5,328.5 C 699.5,328.5 764.5,328.5 829.5,328.5C 829.5,344.5 829.5,360.5 829.5,376.5C 829.5,376.833 829.5,377.167 829.5,377.5C 828.504,361.675 828.17,345.675 828.5,329.5C 796.167,329.5 763.833,329.5 731.5,329.5C 731.5,345.5 731.5,361.5 731.5,377.5C 747.325,378.496 763.325,378.83 779.5,378.5C 779.5,394.5 779.5,410.5 779.5,426.5C 828.5,426.5 877.5,426.5 926.5,426.5C 926.5,474.833 926.5,523.167 926.5,571.5C 910.5,571.5 894.5,571.5 878.5,571.5C 878.167,571.5 877.833,571.5 877.5,571.5C 877.5,555.5 877.5,539.5 877.5,523.5C 861.675,522.504 845.675,522.17 829.5,522.5C 829.83,506.325 829.496,490.325 828.5,474.5C 763.833,474.5 699.167,474.5 634.5,474.5C 634.5,458.5 634.5,442.5 634.5,426.5C 618.675,425.504 602.675,425.17 586.5,425.5C 586.5,409.833 586.5,394.167 586.5,378.5C 602.675,378.83 618.675,378.496 634.5,377.5C 634.5,361.167 634.5,344.833 634.5,328.5 Z"/></g>
<g><path style="opacity:1" fill="#00b220" d="M 829.5,377.5 C 877.833,377.5 926.167,377.5 974.5,377.5C 974.5,393.833 974.5,410.167 974.5,426.5C 991.009,426.83 1007.34,426.496 1023.5,425.5C 1023.5,409.833 1023.5,394.167 1023.5,378.5C 1039.83,378.5 1056.17,378.5 1072.5,378.5C 1072.5,394.5 1072.5,410.5 1072.5,426.5C 1071.5,441.991 1071.17,457.658 1071.5,473.5C 1055.32,473.17 1039.32,473.504 1023.5,474.5C 1023.5,539.5 1023.5,604.5 1023.5,669.5C 990.996,669.832 958.662,669.498 926.5,668.5C 926.5,636.167 926.5,603.833 926.5,571.5C 926.5,523.167 926.5,474.833 926.5,426.5C 878.003,425.501 829.336,425.168 780.5,425.5C 780.5,409.5 780.5,393.5 780.5,377.5C 764.167,377.5 747.833,377.5 731.5,377.5C 731.5,361.5 731.5,345.5 731.5,329.5C 763.833,329.5 796.167,329.5 828.5,329.5C 828.17,345.675 828.504,361.675 829.5,377.5 Z"/></g>
<g><path style="opacity:1" fill="#009019" d="M 1072.5,328.5 C 1088.5,328.5 1104.5,328.5 1120.5,328.5C 1120.5,361.167 1120.5,393.833 1120.5,426.5C 1104.5,426.5 1088.5,426.5 1072.5,426.5C 1072.5,410.5 1072.5,394.5 1072.5,378.5C 1056.17,378.5 1039.83,378.5 1023.5,378.5C 1023.5,378.167 1023.5,377.833 1023.5,377.5C 1039.83,377.5 1056.17,377.5 1072.5,377.5C 1072.5,361.167 1072.5,344.833 1072.5,328.5 Z"/></g>
<g><path style="opacity:1" fill="#001f03" d="M 1120.5,328.5 C 1120.83,328.5 1121.17,328.5 1121.5,328.5C 1137.17,328.5 1152.83,328.5 1168.5,328.5C 1168.83,328.5 1169.17,328.5 1169.5,328.5C 1153.68,329.496 1137.68,329.83 1121.5,329.5C 1121.5,361.833 1121.5,394.167 1121.5,426.5C 1121.17,426.5 1120.83,426.5 1120.5,426.5C 1120.5,393.833 1120.5,361.167 1120.5,328.5 Z"/></g>
<g><path style="opacity:1" fill="#001f03" d="M 633.5,328.5 C 633.833,328.5 634.167,328.5 634.5,328.5C 634.5,344.833 634.5,361.167 634.5,377.5C 618.5,377.5 602.5,377.5 586.5,377.5C 601.991,376.504 617.658,376.17 633.5,376.5C 633.5,360.5 633.5,344.5 633.5,328.5 Z"/></g>
<g><path style="opacity:1" fill="#002c03" d="M 1071.5,328.5 C 1071.83,328.5 1072.17,328.5 1072.5,328.5C 1072.5,344.833 1072.5,361.167 1072.5,377.5C 1056.17,377.5 1039.83,377.5 1023.5,377.5C 1039.32,376.504 1055.32,376.17 1071.5,376.5C 1071.5,360.5 1071.5,344.5 1071.5,328.5 Z"/></g>
<g><path style="opacity:1" fill="#005c0d" d="M 586.5,377.5 C 602.5,377.5 618.5,377.5 634.5,377.5C 618.675,378.496 602.675,378.83 586.5,378.5C 586.5,394.167 586.5,409.833 586.5,425.5C 602.675,425.17 618.675,425.504 634.5,426.5C 618.5,426.5 602.5,426.5 586.5,426.5C 586.167,426.5 585.833,426.5 585.5,426.5C 585.5,426.167 585.5,425.833 585.5,425.5C 585.17,409.325 585.504,393.325 586.5,377.5 Z"/></g>
<g><path style="opacity:1" fill="#4e0243" d="M 585.5,425.5 C 585.5,425.833 585.5,426.167 585.5,426.5C 537.167,426.5 488.833,426.5 440.5,426.5C 440.5,442.5 440.5,458.5 440.5,474.5C 440.167,474.5 439.833,474.5 439.5,474.5C 439.5,458.167 439.5,441.833 439.5,425.5C 488.167,425.5 536.833,425.5 585.5,425.5 Z"/></g>
<g><path style="opacity:1" fill="#00a31d" d="M 731.5,377.5 C 747.833,377.5 764.167,377.5 780.5,377.5C 780.5,393.5 780.5,409.5 780.5,425.5C 829.336,425.168 878.003,425.501 926.5,426.5C 877.5,426.5 828.5,426.5 779.5,426.5C 779.5,410.5 779.5,394.5 779.5,378.5C 763.325,378.83 747.325,378.496 731.5,377.5 Z"/></g>
<g><path style="opacity:1" fill="#ff4109" d="M 829.5,377.5 C 829.5,377.167 829.5,376.833 829.5,376.5C 878.167,376.5 926.833,376.5 975.5,376.5C 975.5,392.833 975.5,409.167 975.5,425.5C 991.5,425.5 1007.5,425.5 1023.5,425.5C 1007.34,426.496 991.009,426.83 974.5,426.5C 974.5,410.167 974.5,393.833 974.5,377.5C 926.167,377.5 877.833,377.5 829.5,377.5 Z"/></g>
<g><path style="opacity:1" fill="#ac0396" d="M 585.5,426.5 C 585.5,442.833 585.5,459.167 585.5,475.5C 601.5,475.5 617.5,475.5 633.5,475.5C 633.5,507.5 633.5,539.5 633.5,571.5C 617.5,571.5 601.5,571.5 585.5,571.5C 585.5,587.833 585.5,604.167 585.5,620.5C 569.5,620.5 553.5,620.5 537.5,620.5C 537.5,604.167 537.5,587.833 537.5,571.5C 505.167,571.5 472.833,571.5 440.5,571.5C 440.5,539.167 440.5,506.833 440.5,474.5C 440.5,458.5 440.5,442.5 440.5,426.5C 488.833,426.5 537.167,426.5 585.5,426.5 Z"/></g>
<g><path style="opacity:1" fill="#000000" d="M 586.5,426.5 C 602.5,426.5 618.5,426.5 634.5,426.5C 634.5,442.5 634.5,458.5 634.5,474.5C 618.5,474.5 602.5,474.5 586.5,474.5C 586.5,458.5 586.5,442.5 586.5,426.5 Z"/></g>
<g><path style="opacity:0.993" fill="#000000" d="M 1072.5,426.5 C 1088.5,426.5 1104.5,426.5 1120.5,426.5C 1120.83,426.5 1121.17,426.5 1121.5,426.5C 1121.5,442.833 1121.5,459.167 1121.5,475.5C 1105.5,475.5 1089.5,475.5 1073.5,475.5C 1073.5,555.833 1073.5,636.167 1073.5,716.5C 1089.5,716.5 1105.5,716.5 1121.5,716.5C 1121.5,732.833 1121.5,749.167 1121.5,765.5C 1137.83,765.5 1154.17,765.5 1170.5,765.5C 1170.5,814.833 1170.5,864.167 1170.5,913.5C 1154.17,913.5 1137.83,913.5 1121.5,913.5C 1121.5,929.833 1121.5,946.167 1121.5,962.5C 1105.5,962.5 1089.5,962.5 1073.5,962.5C 1073.5,978.5 1073.5,994.5 1073.5,1010.5C 1040.83,1010.5 1008.17,1010.5 975.5,1010.5C 975.5,1026.83 975.5,1043.17 975.5,1059.5C 959.167,1059.5 942.833,1059.5 926.5,1059.5C 926.5,1075.5 926.5,1091.5 926.5,1107.5C 910.5,1107.5 894.5,1107.5 878.5,1107.5C 878.5,1123.5 878.5,1139.5 878.5,1155.5C 846.167,1155.5 813.833,1155.5 781.5,1155.5C 781.5,1171.83 781.5,1188.17 781.5,1204.5C 765.167,1204.5 748.833,1204.5 732.5,1204.5C 732.5,1172.17 732.5,1139.83 732.5,1107.5C 781.003,1107.83 829.336,1107.5 877.5,1106.5C 877.5,1090.5 877.5,1074.5 877.5,1058.5C 893.833,1058.5 910.167,1058.5 926.5,1058.5C 926.5,1009.83 926.5,961.167 926.5,912.5C 942.5,912.5 958.5,912.5 974.5,912.5C 974.17,928.675 974.504,944.675 975.5,960.5C 1007.66,961.498 1040,961.832 1072.5,961.5C 1072.5,945.167 1072.5,928.833 1072.5,912.5C 1088.5,912.5 1104.5,912.5 1120.5,912.5C 1120.5,863.833 1120.5,815.167 1120.5,766.5C 1104.5,766.5 1088.5,766.5 1072.5,766.5C 1072.5,750.167 1072.5,733.833 1072.5,717.5C 1023.66,717.168 974.997,717.501 926.5,718.5C 926.5,734.5 926.5,750.5 926.5,766.5C 910.167,766.5 893.833,766.5 877.5,766.5C 877.5,798.833 877.5,831.167 877.5,863.5C 828.833,863.5 780.167,863.5 731.5,863.5C 731.5,879.833 731.5,896.167 731.5,912.5C 715.5,912.5 699.5,912.5 683.5,912.5C 682.501,960.664 682.168,1009 682.5,1057.5C 666.5,1057.5 650.5,1057.5 634.5,1057.5C 634.5,1025.17 634.5,992.833 634.5,960.5C 618.167,960.5 601.833,960.5 585.5,960.5C 585.5,944.5 585.5,928.5 585.5,912.5C 601.833,912.5 618.167,912.5 634.5,912.5C 634.5,863.833 634.5,815.167 634.5,766.5C 683.167,766.5 731.833,766.5 780.5,766.5C 796.5,766.5 812.5,766.5 828.5,766.5C 829.496,750.675 829.83,734.675 829.5,718.5C 845.675,718.83 861.675,718.496 877.5,717.5C 877.5,668.833 877.5,620.167 877.5,571.5C 877.833,571.5 878.167,571.5 878.5,571.5C 893.991,572.496 909.658,572.83 925.5,572.5C 925.168,604.671 925.502,636.671 926.5,668.5C 958.662,669.498 990.996,669.832 1023.5,669.5C 1023.5,604.5 1023.5,539.5 1023.5,474.5C 1039.83,474.5 1056.17,474.5 1072.5,474.5C 1072.5,458.5 1072.5,442.5 1072.5,426.5 Z"/></g>
<g><path style="opacity:1" fill="#008615" d="M 1072.5,426.5 C 1072.5,442.5 1072.5,458.5 1072.5,474.5C 1056.17,474.5 1039.83,474.5 1023.5,474.5C 1039.32,473.504 1055.32,473.17 1071.5,473.5C 1071.17,457.658 1071.5,441.991 1072.5,426.5 Z"/></g>
<g><path style="opacity:1" fill="#85016f" d="M 439.5,474.5 C 439.5,507.167 439.5,539.833 439.5,572.5C 471.833,572.5 504.167,572.5 536.5,572.5C 536.17,588.675 536.504,604.675 537.5,620.5C 553.5,620.5 569.5,620.5 585.5,620.5C 585.5,636.5 585.5,652.5 585.5,668.5C 537.167,668.5 488.833,668.5 440.5,668.5C 440.83,652.325 440.496,636.325 439.5,620.5C 423.5,620.5 407.5,620.5 391.5,620.5C 391.5,571.833 391.5,523.167 391.5,474.5C 407.5,474.5 423.5,474.5 439.5,474.5 Z"/></g>
<g><path style="opacity:1" fill="#750266" d="M 585.5,426.5 C 585.833,426.5 586.167,426.5 586.5,426.5C 586.5,442.5 586.5,458.5 586.5,474.5C 602.5,474.5 618.5,474.5 634.5,474.5C 634.5,506.833 634.5,539.167 634.5,571.5C 634.167,571.5 633.833,571.5 633.5,571.5C 633.5,539.5 633.5,507.5 633.5,475.5C 617.5,475.5 601.5,475.5 585.5,475.5C 585.5,459.167 585.5,442.833 585.5,426.5 Z"/></g>
<g><path style="opacity:1" fill="#000000" d="M 634.5,474.5 C 699.167,474.5 763.833,474.5 828.5,474.5C 828.5,490.833 828.5,507.167 828.5,523.5C 780.167,523.5 731.833,523.5 683.5,523.5C 682.504,539.325 682.17,555.325 682.5,571.5C 666.5,571.5 650.5,571.5 634.5,571.5C 634.5,539.167 634.5,506.833 634.5,474.5 Z"/></g>
<g><path style="opacity:1" fill="#00600e" d="M 828.5,474.5 C 829.496,490.325 829.83,506.325 829.5,522.5C 845.675,522.17 861.675,522.504 877.5,523.5C 861.5,523.5 845.5,523.5 829.5,523.5C 829.167,523.5 828.833,523.5 828.5,523.5C 828.5,507.167 828.5,490.833 828.5,474.5 Z"/></g>
<g><path style="opacity:1" fill="#ac0396" d="M 683.5,523.5 C 731.833,523.5 780.167,523.5 828.5,523.5C 828.833,523.5 829.167,523.5 829.5,523.5C 829.5,539.5 829.5,555.5 829.5,571.5C 844.991,572.496 860.658,572.83 876.5,572.5C 876.5,604.833 876.5,637.167 876.5,669.5C 860.5,669.5 844.5,669.5 828.5,669.5C 828.5,685.5 828.5,701.5 828.5,717.5C 828.5,733.833 828.5,750.167 828.5,766.5C 812.5,766.5 796.5,766.5 780.5,766.5C 780.5,766.167 780.5,765.833 780.5,765.5C 780.5,717.167 780.5,668.833 780.5,620.5C 764.167,620.5 747.833,620.5 731.5,620.5C 731.5,604.167 731.5,587.833 731.5,571.5C 715.5,571.5 699.5,571.5 683.5,571.5C 683.5,555.5 683.5,539.5 683.5,523.5 Z"/></g>
<g><path style="opacity:1" fill="#000000" d="M 829.5,523.5 C 845.5,523.5 861.5,523.5 877.5,523.5C 877.5,539.5 877.5,555.5 877.5,571.5C 861.5,571.5 845.5,571.5 829.5,571.5C 829.5,555.5 829.5,539.5 829.5,523.5 Z"/></g>
<g><path style="opacity:1" fill="#93027e" d="M 439.5,474.5 C 439.833,474.5 440.167,474.5 440.5,474.5C 440.5,506.833 440.5,539.167 440.5,571.5C 472.833,571.5 505.167,571.5 537.5,571.5C 537.5,587.833 537.5,604.167 537.5,620.5C 536.504,604.675 536.17,588.675 536.5,572.5C 504.167,572.5 471.833,572.5 439.5,572.5C 439.5,539.833 439.5,507.167 439.5,474.5 Z"/></g>
<g><path style="opacity:1" fill="#24031d" d="M 633.5,571.5 C 633.833,571.5 634.167,571.5 634.5,571.5C 634.5,636.5 634.5,701.5 634.5,766.5C 618.167,766.5 601.833,766.5 585.5,766.5C 585.5,750.5 585.5,734.5 585.5,718.5C 585.5,718.167 585.5,717.833 585.5,717.5C 586.496,733.325 586.83,749.325 586.5,765.5C 602.167,765.5 617.833,765.5 633.5,765.5C 633.5,701.167 633.5,636.833 633.5,572.5C 617.833,572.5 602.167,572.5 586.5,572.5C 586.832,604.671 586.498,636.671 585.5,668.5C 585.5,652.5 585.5,636.5 585.5,620.5C 585.5,604.167 585.5,587.833 585.5,571.5C 601.5,571.5 617.5,571.5 633.5,571.5 Z"/></g>
<g><path style="opacity:1" fill="#85016f" d="M 683.5,523.5 C 683.5,539.5 683.5,555.5 683.5,571.5C 699.5,571.5 715.5,571.5 731.5,571.5C 731.5,587.833 731.5,604.167 731.5,620.5C 747.325,621.496 763.325,621.83 779.5,621.5C 779.168,669.67 779.501,717.67 780.5,765.5C 780.5,765.833 780.5,766.167 780.5,766.5C 731.833,766.5 683.167,766.5 634.5,766.5C 634.5,701.5 634.5,636.5 634.5,571.5C 650.5,571.5 666.5,571.5 682.5,571.5C 682.17,555.325 682.504,539.325 683.5,523.5 Z"/></g>
<g><path style="opacity:1" fill="#002603" d="M 878.5,571.5 C 894.5,571.5 910.5,571.5 926.5,571.5C 926.5,603.833 926.5,636.167 926.5,668.5C 925.502,636.671 925.168,604.671 925.5,572.5C 909.658,572.83 893.991,572.496 878.5,571.5 Z"/></g>
<g><path style="opacity:1" fill="#93027d" d="M 731.5,620.5 C 747.833,620.5 764.167,620.5 780.5,620.5C 780.5,668.833 780.5,717.167 780.5,765.5C 779.501,717.67 779.168,669.67 779.5,621.5C 763.325,621.83 747.325,621.496 731.5,620.5 Z"/></g>
<g><path style="opacity:1" fill="#85026f" d="M 829.5,571.5 C 845.5,571.5 861.5,571.5 877.5,571.5C 877.5,620.167 877.5,668.833 877.5,717.5C 861.167,717.5 844.833,717.5 828.5,717.5C 828.5,701.5 828.5,685.5 828.5,669.5C 844.5,669.5 860.5,669.5 876.5,669.5C 876.5,637.167 876.5,604.833 876.5,572.5C 860.658,572.83 844.991,572.496 829.5,571.5 Z"/></g>
<g><path style="opacity:0.976" fill="#000000" d="M 633.5,328.5 C 633.5,344.5 633.5,360.5 633.5,376.5C 617.658,376.17 601.991,376.504 586.5,377.5C 585.504,393.325 585.17,409.325 585.5,425.5C 536.833,425.5 488.167,425.5 439.5,425.5C 439.5,441.833 439.5,458.167 439.5,474.5C 423.5,474.5 407.5,474.5 391.5,474.5C 391.5,523.167 391.5,571.833 391.5,620.5C 407.5,620.5 423.5,620.5 439.5,620.5C 439.5,636.833 439.5,653.167 439.5,669.5C 488.336,669.832 537.003,669.499 585.5,668.5C 586.498,636.671 586.832,604.671 586.5,572.5C 602.167,572.5 617.833,572.5 633.5,572.5C 633.5,636.833 633.5,701.167 633.5,765.5C 617.833,765.5 602.167,765.5 586.5,765.5C 586.83,749.325 586.496,733.325 585.5,717.5C 536.833,717.5 488.167,717.5 439.5,717.5C 439.5,733.833 439.5,750.167 439.5,766.5C 423.5,766.5 407.5,766.5 391.5,766.5C 391.5,815.167 391.5,863.833 391.5,912.5C 407.5,912.5 423.5,912.5 439.5,912.5C 439.5,928.833 439.5,945.167 439.5,961.5C 488.167,961.5 536.833,961.5 585.5,961.5C 585.5,977.5 585.5,993.5 585.5,1009.5C 569.325,1009.17 553.325,1009.5 537.5,1010.5C 536.504,1025.99 536.17,1041.66 536.5,1057.5C 520.325,1057.17 504.325,1057.5 488.5,1058.5C 488.5,1107.17 488.5,1155.83 488.5,1204.5C 504.5,1204.5 520.5,1204.5 536.5,1204.5C 536.17,1220.68 536.504,1236.68 537.5,1252.5C 585.997,1253.5 634.664,1253.83 683.5,1253.5C 683.5,1269.83 683.5,1286.17 683.5,1302.5C 634.5,1302.5 585.5,1302.5 536.5,1302.5C 536.5,1286.17 536.5,1269.83 536.5,1253.5C 520.167,1253.5 503.833,1253.5 487.5,1253.5C 487.5,1237.17 487.5,1220.83 487.5,1204.5C 471.5,1204.5 455.5,1204.5 439.5,1204.5C 439.5,1155.5 439.5,1106.5 439.5,1057.5C 455.5,1057.5 471.5,1057.5 487.5,1057.5C 487.5,1041.83 487.5,1026.17 487.5,1010.5C 471.5,1010.5 455.5,1010.5 439.5,1010.5C 439.5,994.5 439.5,978.5 439.5,962.5C 422.833,962.5 406.167,962.5 389.5,962.5C 389.5,946.167 389.5,929.833 389.5,913.5C 373.5,913.5 357.5,913.5 341.5,913.5C 341.5,864.167 341.5,814.833 341.5,765.5C 357.5,765.5 373.5,765.5 389.5,765.5C 389.5,749.167 389.5,732.833 389.5,716.5C 406.167,716.5 422.833,716.5 439.5,716.5C 439.5,701.167 439.5,685.833 439.5,670.5C 422.833,670.5 406.167,670.5 389.5,670.5C 389.5,654.167 389.5,637.833 389.5,621.5C 373.5,621.5 357.5,621.5 341.5,621.5C 341.5,572.167 341.5,522.833 341.5,473.5C 357.5,473.5 373.5,473.5 389.5,473.5C 389.5,457.167 389.5,440.833 389.5,424.5C 406.167,424.5 422.833,424.5 439.5,424.5C 439.5,408.5 439.5,392.5 439.5,376.5C 487.833,376.5 536.167,376.5 584.5,376.5C 584.5,360.5 584.5,344.5 584.5,328.5C 600.833,328.5 617.167,328.5 633.5,328.5 Z"/></g>
<g><path style="opacity:1" fill="#500143" d="M 439.5,620.5 C 440.496,636.325 440.83,652.325 440.5,668.5C 488.833,668.5 537.167,668.5 585.5,668.5C 537.003,669.499 488.336,669.832 439.5,669.5C 439.5,653.167 439.5,636.833 439.5,620.5 Z"/></g>
<g><path style="opacity:1" fill="#68025b" d="M 585.5,717.5 C 585.5,717.833 585.5,718.167 585.5,718.5C 537.167,718.5 488.833,718.5 440.5,718.5C 440.5,734.5 440.5,750.5 440.5,766.5C 440.167,766.5 439.833,766.5 439.5,766.5C 439.5,750.167 439.5,733.833 439.5,717.5C 488.167,717.5 536.833,717.5 585.5,717.5 Z"/></g>
<g><path style="opacity:1" fill="#650158" d="M 926.5,718.5 C 974.997,717.501 1023.66,717.168 1072.5,717.5C 1072.5,733.833 1072.5,750.167 1072.5,766.5C 1071.5,750.675 1071.17,734.675 1071.5,718.5C 1039.17,718.5 1006.83,718.5 974.5,718.5C 958.5,718.5 942.5,718.5 926.5,718.5 Z"/></g>
<g><path style="opacity:1" fill="#ac0396" d="M 585.5,718.5 C 585.5,734.5 585.5,750.5 585.5,766.5C 601.325,767.496 617.325,767.83 633.5,767.5C 633.5,815.5 633.5,863.5 633.5,911.5C 617.325,911.17 601.325,911.504 585.5,912.5C 569.5,912.5 553.5,912.5 537.5,912.5C 537.5,879.833 537.5,847.167 537.5,814.5C 521.167,814.5 504.833,814.5 488.5,814.5C 488.5,798.5 488.5,782.5 488.5,766.5C 472.5,766.5 456.5,766.5 440.5,766.5C 440.5,750.5 440.5,734.5 440.5,718.5C 488.833,718.5 537.167,718.5 585.5,718.5 Z"/></g>
<g><path style="opacity:1" fill="#47023d" d="M 828.5,717.5 C 844.833,717.5 861.167,717.5 877.5,717.5C 861.675,718.496 845.675,718.83 829.5,718.5C 829.83,734.675 829.496,750.675 828.5,766.5C 828.5,750.167 828.5,733.833 828.5,717.5 Z"/></g>
<g><path style="opacity:1" fill="#85016f" d="M 926.5,718.5 C 942.5,718.5 958.5,718.5 974.5,718.5C 974.5,734.5 974.5,750.5 974.5,766.5C 990.833,766.5 1007.17,766.5 1023.5,766.5C 1023.5,815.167 1023.5,863.833 1023.5,912.5C 1039.5,912.5 1055.5,912.5 1071.5,912.5C 1071.5,928.5 1071.5,944.5 1071.5,960.5C 1039.5,960.5 1007.5,960.5 975.5,960.5C 974.504,944.675 974.17,928.675 974.5,912.5C 958.5,912.5 942.5,912.5 926.5,912.5C 926.5,896.167 926.5,879.833 926.5,863.5C 910.5,863.5 894.5,863.5 878.5,863.5C 878.5,831.5 878.5,799.5 878.5,767.5C 894.675,767.83 910.675,767.496 926.5,766.5C 926.5,750.5 926.5,734.5 926.5,718.5 Z"/></g>
<g><path style="opacity:1" fill="#ac0396" d="M 974.5,718.5 C 1006.83,718.5 1039.17,718.5 1071.5,718.5C 1071.17,734.675 1071.5,750.675 1072.5,766.5C 1088.5,766.5 1104.5,766.5 1120.5,766.5C 1120.5,815.167 1120.5,863.833 1120.5,912.5C 1104.5,912.5 1088.5,912.5 1072.5,912.5C 1072.17,912.5 1071.83,912.5 1071.5,912.5C 1055.5,912.5 1039.5,912.5 1023.5,912.5C 1023.5,863.833 1023.5,815.167 1023.5,766.5C 1007.17,766.5 990.833,766.5 974.5,766.5C 974.5,750.5 974.5,734.5 974.5,718.5 Z"/></g>
<g><path style="opacity:1" fill="#850170" d="M 439.5,766.5 C 439.833,766.5 440.167,766.5 440.5,766.5C 456.5,766.5 472.5,766.5 488.5,766.5C 488.5,782.5 488.5,798.5 488.5,814.5C 504.833,814.5 521.167,814.5 537.5,814.5C 537.5,847.167 537.5,879.833 537.5,912.5C 553.5,912.5 569.5,912.5 585.5,912.5C 585.5,928.5 585.5,944.5 585.5,960.5C 537.167,960.5 488.833,960.5 440.5,960.5C 440.83,944.325 440.496,928.325 439.5,912.5C 423.5,912.5 407.5,912.5 391.5,912.5C 391.5,863.833 391.5,815.167 391.5,766.5C 407.5,766.5 423.5,766.5 439.5,766.5 Z"/></g>
<g><path style="opacity:1" fill="#840274" d="M 585.5,766.5 C 601.833,766.5 618.167,766.5 634.5,766.5C 634.5,815.167 634.5,863.833 634.5,912.5C 618.167,912.5 601.833,912.5 585.5,912.5C 601.325,911.504 617.325,911.17 633.5,911.5C 633.5,863.5 633.5,815.5 633.5,767.5C 617.325,767.83 601.325,767.496 585.5,766.5 Z"/></g>
<g><path style="opacity:1" fill="#660154" d="M 926.5,766.5 C 910.675,767.496 894.675,767.83 878.5,767.5C 878.5,799.5 878.5,831.5 878.5,863.5C 878.167,863.5 877.833,863.5 877.5,863.5C 877.5,831.167 877.5,798.833 877.5,766.5C 893.833,766.5 910.167,766.5 926.5,766.5 Z"/></g>
<g><path style="opacity:1" fill="#84016e" d="M 731.5,863.5 C 715.167,863.5 698.833,863.5 682.5,863.5C 682.5,847.5 682.5,831.5 682.5,815.5C 698.833,815.5 715.167,815.5 731.5,815.5C 731.5,831.5 731.5,847.5 731.5,863.5 Z"/></g>
<g><path style="opacity:1" fill="#810271" d="M 731.5,863.5 C 780.167,863.5 828.833,863.5 877.5,863.5C 877.5,879.833 877.5,896.167 877.5,912.5C 876.504,896.675 876.17,880.675 876.5,864.5C 828.5,864.5 780.5,864.5 732.5,864.5C 732.83,880.675 732.496,896.675 731.5,912.5C 731.5,896.167 731.5,879.833 731.5,863.5 Z"/></g>
<g><path style="opacity:1" fill="#ac0396" d="M 877.5,912.5 C 893.325,913.496 909.325,913.83 925.5,913.5C 925.5,961.5 925.5,1009.5 925.5,1057.5C 909.5,1057.5 893.5,1057.5 877.5,1057.5C 861.5,1057.5 845.5,1057.5 829.5,1057.5C 829.5,1025.17 829.5,992.833 829.5,960.5C 796.833,960.5 764.167,960.5 731.5,960.5C 731.5,944.5 731.5,928.5 731.5,912.5C 732.496,896.675 732.83,880.675 732.5,864.5C 780.5,864.5 828.5,864.5 876.5,864.5C 876.17,880.675 876.504,896.675 877.5,912.5 Z"/></g>
<g><path style="opacity:1" fill="#1e0018" d="M 877.5,863.5 C 877.833,863.5 878.167,863.5 878.5,863.5C 894.5,863.5 910.5,863.5 926.5,863.5C 926.5,879.833 926.5,896.167 926.5,912.5C 910.167,912.5 893.833,912.5 877.5,912.5C 877.5,896.167 877.5,879.833 877.5,863.5 Z"/></g>
<g><path style="opacity:1" fill="#000000" d="M 878.5,864.5 C 894.167,864.5 909.833,864.5 925.5,864.5C 925.5,880.167 925.5,895.833 925.5,911.5C 909.833,911.5 894.167,911.5 878.5,911.5C 878.5,895.833 878.5,880.167 878.5,864.5 Z"/></g>
<g><path style="opacity:1" fill="#45013a" d="M 683.5,912.5 C 683.5,960.833 683.5,1009.17 683.5,1057.5C 699.675,1057.17 715.675,1057.5 731.5,1058.5C 715.5,1058.5 699.5,1058.5 683.5,1058.5C 683.5,1074.5 683.5,1090.5 683.5,1106.5C 682.504,1090.68 682.17,1074.68 682.5,1058.5C 666.5,1058.5 650.5,1058.5 634.5,1058.5C 634.5,1058.17 634.5,1057.83 634.5,1057.5C 650.5,1057.5 666.5,1057.5 682.5,1057.5C 682.168,1009 682.501,960.664 683.5,912.5 Z"/></g>
<g><path style="opacity:1" fill="#85016f" d="M 683.5,912.5 C 699.5,912.5 715.5,912.5 731.5,912.5C 731.5,928.5 731.5,944.5 731.5,960.5C 763.662,961.498 795.996,961.832 828.5,961.5C 828.5,993.833 828.5,1026.17 828.5,1058.5C 844.5,1058.5 860.5,1058.5 876.5,1058.5C 876.5,1074.17 876.5,1089.83 876.5,1105.5C 828.5,1105.5 780.5,1105.5 732.5,1105.5C 732.83,1089.66 732.496,1073.99 731.5,1058.5C 715.675,1057.5 699.675,1057.17 683.5,1057.5C 683.5,1009.17 683.5,960.833 683.5,912.5 Z"/></g>
<g><path style="opacity:1" fill="#7e026f" d="M 877.5,912.5 C 893.833,912.5 910.167,912.5 926.5,912.5C 926.5,961.167 926.5,1009.83 926.5,1058.5C 910.167,1058.5 893.833,1058.5 877.5,1058.5C 877.5,1058.17 877.5,1057.83 877.5,1057.5C 893.5,1057.5 909.5,1057.5 925.5,1057.5C 925.5,1009.5 925.5,961.5 925.5,913.5C 909.325,913.83 893.325,913.496 877.5,912.5 Z"/></g>
<g><path style="opacity:1" fill="#3a0130" d="M 439.5,912.5 C 440.496,928.325 440.83,944.325 440.5,960.5C 488.833,960.5 537.167,960.5 585.5,960.5C 585.5,960.833 585.5,961.167 585.5,961.5C 536.833,961.5 488.167,961.5 439.5,961.5C 439.5,945.167 439.5,928.833 439.5,912.5 Z"/></g>
<g><path style="opacity:1" fill="#3d0132" d="M 1071.5,912.5 C 1071.83,912.5 1072.17,912.5 1072.5,912.5C 1072.5,928.833 1072.5,945.167 1072.5,961.5C 1040,961.832 1007.66,961.498 975.5,960.5C 1007.5,960.5 1039.5,960.5 1071.5,960.5C 1071.5,944.5 1071.5,928.5 1071.5,912.5 Z"/></g>
<g><path style="opacity:1" fill="#990283" d="M 731.5,960.5 C 764.167,960.5 796.833,960.5 829.5,960.5C 829.5,992.833 829.5,1025.17 829.5,1057.5C 845.5,1057.5 861.5,1057.5 877.5,1057.5C 877.5,1057.83 877.5,1058.17 877.5,1058.5C 877.167,1058.5 876.833,1058.5 876.5,1058.5C 860.5,1058.5 844.5,1058.5 828.5,1058.5C 828.5,1026.17 828.5,993.833 828.5,961.5C 795.996,961.832 763.662,961.498 731.5,960.5 Z"/></g>
<g><path style="opacity:1" fill="#ac0396" d="M 634.5,1058.5 C 650.5,1058.5 666.5,1058.5 682.5,1058.5C 682.17,1074.68 682.504,1090.68 683.5,1106.5C 699.5,1106.5 715.5,1106.5 731.5,1106.5C 731.5,1138.83 731.5,1171.17 731.5,1203.5C 715.5,1203.5 699.5,1203.5 683.5,1203.5C 667.167,1203.5 650.833,1203.5 634.5,1203.5C 634.5,1171.17 634.5,1138.83 634.5,1106.5C 618.5,1106.5 602.5,1106.5 586.5,1106.5C 586.5,1074.17 586.5,1041.83 586.5,1009.5C 586.5,993.5 586.5,977.5 586.5,961.5C 602.167,961.5 617.833,961.5 633.5,961.5C 633.168,994.004 633.502,1026.34 634.5,1058.5 Z"/></g>
<g><path style="opacity:1" fill="#780269" d="M 585.5,960.5 C 601.833,960.5 618.167,960.5 634.5,960.5C 634.5,992.833 634.5,1025.17 634.5,1057.5C 634.5,1057.83 634.5,1058.17 634.5,1058.5C 633.502,1026.34 633.168,994.004 633.5,961.5C 617.833,961.5 602.167,961.5 586.5,961.5C 586.5,977.5 586.5,993.5 586.5,1009.5C 586.167,1009.5 585.833,1009.5 585.5,1009.5C 585.5,993.5 585.5,977.5 585.5,961.5C 585.5,961.167 585.5,960.833 585.5,960.5 Z"/></g>
<g><path style="opacity:1" fill="#85016f" d="M 585.5,1009.5 C 585.5,1042.17 585.5,1074.83 585.5,1107.5C 601.5,1107.5 617.5,1107.5 633.5,1107.5C 633.5,1139.83 633.5,1172.17 633.5,1204.5C 649.833,1204.5 666.167,1204.5 682.5,1204.5C 682.5,1220.5 682.5,1236.5 682.5,1252.5C 634.167,1252.5 585.833,1252.5 537.5,1252.5C 537.5,1236.17 537.5,1219.83 537.5,1203.5C 521.5,1203.5 505.5,1203.5 489.5,1203.5C 489.5,1155.17 489.5,1106.83 489.5,1058.5C 505.5,1058.5 521.5,1058.5 537.5,1058.5C 537.5,1042.5 537.5,1026.5 537.5,1010.5C 553.325,1009.5 569.325,1009.17 585.5,1009.5 Z"/></g>
<g><path style="opacity:1" fill="#2d0124" d="M 537.5,1010.5 C 537.5,1026.5 537.5,1042.5 537.5,1058.5C 521.5,1058.5 505.5,1058.5 489.5,1058.5C 489.167,1058.5 488.833,1058.5 488.5,1058.5C 504.325,1057.5 520.325,1057.17 536.5,1057.5C 536.17,1041.66 536.504,1025.99 537.5,1010.5 Z"/></g>
<g><path style="opacity:1" fill="#48013c" d="M 488.5,1058.5 C 488.833,1058.5 489.167,1058.5 489.5,1058.5C 489.5,1106.83 489.5,1155.17 489.5,1203.5C 505.5,1203.5 521.5,1203.5 537.5,1203.5C 537.5,1219.83 537.5,1236.17 537.5,1252.5C 536.504,1236.68 536.17,1220.68 536.5,1204.5C 520.5,1204.5 504.5,1204.5 488.5,1204.5C 488.5,1155.83 488.5,1107.17 488.5,1058.5 Z"/></g>
<g><path style="opacity:1" fill="#000000" d="M 731.5,1058.5 C 731.5,1074.5 731.5,1090.5 731.5,1106.5C 715.5,1106.5 699.5,1106.5 683.5,1106.5C 683.5,1090.5 683.5,1074.5 683.5,1058.5C 699.5,1058.5 715.5,1058.5 731.5,1058.5 Z"/></g>
<g><path style="opacity:1" fill="#6f015c" d="M 731.5,1058.5 C 732.496,1073.99 732.83,1089.66 732.5,1105.5C 780.5,1105.5 828.5,1105.5 876.5,1105.5C 876.5,1089.83 876.5,1074.17 876.5,1058.5C 876.833,1058.5 877.167,1058.5 877.5,1058.5C 877.5,1074.5 877.5,1090.5 877.5,1106.5C 828.833,1106.5 780.167,1106.5 731.5,1106.5C 731.5,1090.5 731.5,1074.5 731.5,1058.5 Z"/></g>
<g><path style="opacity:1" fill="#310228" d="M 731.5,1106.5 C 780.167,1106.5 828.833,1106.5 877.5,1106.5C 829.336,1107.5 781.003,1107.83 732.5,1107.5C 732.5,1139.83 732.5,1172.17 732.5,1204.5C 716.167,1204.5 699.833,1204.5 683.5,1204.5C 683.5,1204.17 683.5,1203.83 683.5,1203.5C 699.5,1203.5 715.5,1203.5 731.5,1203.5C 731.5,1171.17 731.5,1138.83 731.5,1106.5 Z"/></g>
<g><path style="opacity:1" fill="#95027f" d="M 585.5,1009.5 C 585.833,1009.5 586.167,1009.5 586.5,1009.5C 586.5,1041.83 586.5,1074.17 586.5,1106.5C 602.5,1106.5 618.5,1106.5 634.5,1106.5C 634.5,1138.83 634.5,1171.17 634.5,1203.5C 650.833,1203.5 667.167,1203.5 683.5,1203.5C 683.5,1203.83 683.5,1204.17 683.5,1204.5C 683.167,1204.5 682.833,1204.5 682.5,1204.5C 666.167,1204.5 649.833,1204.5 633.5,1204.5C 633.5,1172.17 633.5,1139.83 633.5,1107.5C 617.5,1107.5 601.5,1107.5 585.5,1107.5C 585.5,1074.83 585.5,1042.17 585.5,1009.5 Z"/></g>
<g><path style="opacity:0.97" fill="#000000" d="M 683.5,1204.5 C 699.833,1204.5 716.167,1204.5 732.5,1204.5C 732.5,1220.83 732.5,1237.17 732.5,1253.5C 716.167,1253.5 699.833,1253.5 683.5,1253.5C 683.5,1237.17 683.5,1220.83 683.5,1204.5 Z"/></g>
<g><path style="opacity:1" fill="#22031b" d="M 682.5,1204.5 C 682.833,1204.5 683.167,1204.5 683.5,1204.5C 683.5,1220.83 683.5,1237.17 683.5,1253.5C 634.664,1253.83 585.997,1253.5 537.5,1252.5C 585.833,1252.5 634.167,1252.5 682.5,1252.5C 682.5,1236.5 682.5,1220.5 682.5,1204.5 Z"/></g>
</svg>
