<?xml version="1.0" encoding="UTF-8"?>
<!DOCTYPE svg PUBLIC "-//W3C//DTD SVG 1.1//EN" "http://www.w3.org/Graphics/SVG/1.1/DTD/svg11.dtd">
<svg xmlns="http://www.w3.org/2000/svg" version="1.1" width="560px" height="778px" style="shape-rendering:geometricPrecision; text-rendering:geometricPrecision; image-rendering:optimizeQuality; fill-rule:evenodd; clip-rule:evenodd" xmlns:xlink="http://www.w3.org/1999/xlink">
<g><path style="opacity:0.976" fill="#000000" d="M 429.5,213.5 C 429.5,229.833 429.5,246.167 429.5,262.5C 429.167,262.5 428.833,262.5 428.5,262.5C 428.5,246.167 428.5,229.833 428.5,213.5C 420.5,213.5 412.5,213.5 404.5,213.5C 404.5,205.167 404.5,196.833 404.5,188.5C 388.167,188.5 371.833,188.5 355.5,188.5C 355.5,196.833 355.5,205.167 355.5,213.5C 347.5,213.5 339.5,213.5 331.5,213.5C 331.5,229.833 331.5,246.167 331.5,262.5C 323.167,262.5 314.833,262.5 306.5,262.5C 306.5,270.5 306.5,278.5 306.5,286.5C 298.5,286.5 290.5,286.5 282.5,286.5C 282.167,286.5 281.833,286.5 281.5,286.5C 281.5,278.167 281.5,269.833 281.5,261.5C 289.833,261.5 298.167,261.5 306.5,261.5C 306.5,245.5 306.5,229.5 306.5,213.5C 314.5,213.5 322.5,213.5 330.5,213.5C 330.5,148.167 330.5,82.8333 330.5,17.5C 363.5,17.5 396.5,17.5 429.5,17.5C 429.5,82.8333 429.5,148.167 429.5,213.5 Z"/></g>
<g><path style="opacity:1" fill="#ad120b" d="M 404.5,67.5 C 388.167,67.5 371.833,67.5 355.5,67.5C 355.5,59.1667 355.5,50.8333 355.5,42.5C 371.833,42.5 388.167,42.5 404.5,42.5C 404.5,50.8333 404.5,59.1667 404.5,67.5 Z"/></g>
<g><path style="opacity:1" fill="#961206" d="M 355.5,67.5 C 371.833,67.5 388.167,67.5 404.5,67.5C 404.5,75.5 404.5,83.5 404.5,91.5C 388.167,91.5 371.833,91.5 355.5,91.5C 355.5,83.5 355.5,75.5 355.5,67.5 Z"/></g>
<g><path style="opacity:1" fill="#941206" d="M 355.5,115.5 C 371.833,115.5 388.167,115.5 404.5,115.5C 404.5,131.833 404.5,148.167 404.5,164.5C 388.167,164.5 371.833,164.5 355.5,164.5C 355.5,148.167 355.5,131.833 355.5,115.5 Z"/></g>
<g><path style="opacity:1" fill="#005627" d="M 404.5,213.5 C 388.167,213.5 371.833,213.5 355.5,213.5C 355.5,205.167 355.5,196.833 355.5,188.5C 371.833,188.5 388.167,188.5 404.5,188.5C 404.5,196.833 404.5,205.167 404.5,213.5 Z"/></g>
<g><path style="opacity:1" fill="#94ba20" d="M 355.5,213.5 C 355.5,229.833 355.5,246.167 355.5,262.5C 347.5,262.5 339.5,262.5 331.5,262.5C 331.5,246.167 331.5,229.833 331.5,213.5C 339.5,213.5 347.5,213.5 355.5,213.5 Z"/></g>
<g><path style="opacity:1" fill="#04722f" d="M 355.5,213.5 C 371.833,213.5 388.167,213.5 404.5,213.5C 404.5,237.833 404.5,262.167 404.5,286.5C 404.5,286.833 404.5,287.167 404.5,287.5C 404.5,311.5 404.5,335.5 404.5,359.5C 380.167,359.5 355.833,359.5 331.5,359.5C 331.5,335.5 331.5,311.5 331.5,287.5C 323.5,287.5 315.5,287.5 307.5,287.5C 307.826,295.684 307.492,303.684 306.5,311.5C 306.5,303.5 306.5,295.5 306.5,287.5C 298.5,287.5 290.5,287.5 282.5,287.5C 282.5,287.167 282.5,286.833 282.5,286.5C 290.5,286.5 298.5,286.5 306.5,286.5C 314.833,286.5 323.167,286.5 331.5,286.5C 339.5,286.5 347.5,286.5 355.5,286.5C 355.5,278.5 355.5,270.5 355.5,262.5C 355.5,246.167 355.5,229.833 355.5,213.5 Z"/></g>
<g><path style="opacity:0.982" fill="#000000" d="M 429.5,213.5 C 437.5,213.5 445.5,213.5 453.5,213.5C 453.5,229.5 453.5,245.5 453.5,261.5C 461.833,261.5 470.167,261.5 478.5,261.5C 478.5,269.833 478.5,278.167 478.5,286.5C 486.5,286.5 494.5,286.5 502.5,286.5C 502.5,302.833 502.5,319.167 502.5,335.5C 494.167,335.5 485.833,335.5 477.5,335.5C 477.5,319.167 477.5,302.833 477.5,286.5C 469.5,286.5 461.5,286.5 453.5,286.5C 453.5,278.5 453.5,270.5 453.5,262.5C 445.5,262.5 437.5,262.5 429.5,262.5C 429.5,246.167 429.5,229.833 429.5,213.5 Z"/></g>
<g><path style="opacity:1" fill="#94b920" d="M 404.5,213.5 C 412.5,213.5 420.5,213.5 428.5,213.5C 428.5,229.833 428.5,246.167 428.5,262.5C 428.5,270.5 428.5,278.5 428.5,286.5C 420.5,286.5 412.5,286.5 404.5,286.5C 404.5,262.167 404.5,237.833 404.5,213.5 Z"/></g>
<g><path style="opacity:1" fill="#93b820" d="M 331.5,262.5 C 331.5,270.5 331.5,278.5 331.5,286.5C 323.167,286.5 314.833,286.5 306.5,286.5C 306.5,278.5 306.5,270.5 306.5,262.5C 314.833,262.5 323.167,262.5 331.5,262.5 Z"/></g>
<g><path style="opacity:1" fill="#005927" d="M 331.5,262.5 C 339.5,262.5 347.5,262.5 355.5,262.5C 355.5,270.5 355.5,278.5 355.5,286.5C 347.5,286.5 339.5,286.5 331.5,286.5C 331.5,278.5 331.5,270.5 331.5,262.5 Z"/></g>
<g><path style="opacity:1" fill="#05732f" d="M 428.5,262.5 C 428.833,262.5 429.167,262.5 429.5,262.5C 437.5,262.5 445.5,262.5 453.5,262.5C 453.5,270.5 453.5,278.5 453.5,286.5C 445.167,286.5 436.833,286.5 428.5,286.5C 428.5,278.5 428.5,270.5 428.5,262.5 Z"/></g>
<g><path style="opacity:0.99" fill="#040404" d="M 281.5,286.5 C 281.833,286.5 282.167,286.5 282.5,286.5C 282.5,286.833 282.5,287.167 282.5,287.5C 282.5,295.5 282.5,303.5 282.5,311.5C 282.5,319.5 282.5,327.5 282.5,335.5C 274.5,335.5 266.5,335.5 258.5,335.5C 258.826,327.316 258.492,319.316 257.5,311.5C 200.833,311.5 144.167,311.5 87.5,311.5C 87.5,319.5 87.5,327.5 87.5,335.5C 79.5,335.5 71.5,335.5 63.5,335.5C 63.1667,335.5 62.8333,335.5 62.5,335.5C 62.5,319.167 62.5,302.833 62.5,286.5C 135.5,286.5 208.5,286.5 281.5,286.5 Z"/></g>
<g><path style="opacity:1" fill="#93b921" d="M 282.5,287.5 C 290.5,287.5 298.5,287.5 306.5,287.5C 306.5,295.5 306.5,303.5 306.5,311.5C 298.5,311.5 290.5,311.5 282.5,311.5C 282.5,303.5 282.5,295.5 282.5,287.5 Z"/></g>
<g><path style="opacity:1" fill="#005928" d="M 331.5,359.5 C 323.5,359.5 315.5,359.5 307.5,359.5C 307.826,351.316 307.492,343.316 306.5,335.5C 306.5,327.5 306.5,319.5 306.5,311.5C 307.492,303.684 307.826,295.684 307.5,287.5C 315.5,287.5 323.5,287.5 331.5,287.5C 331.5,311.5 331.5,335.5 331.5,359.5 Z"/></g>
<g><path style="opacity:1" fill="#005928" d="M 404.5,287.5 C 412.5,287.5 420.5,287.5 428.5,287.5C 428.5,303.5 428.5,319.5 428.5,335.5C 428.5,343.833 428.5,352.167 428.5,360.5C 395.996,360.832 363.662,360.498 331.5,359.5C 355.833,359.5 380.167,359.5 404.5,359.5C 404.5,335.5 404.5,311.5 404.5,287.5 Z"/></g>
<g><path style="opacity:1" fill="#689e23" d="M 404.5,287.5 C 404.5,287.167 404.5,286.833 404.5,286.5C 412.5,286.5 420.5,286.5 428.5,286.5C 436.833,286.5 445.167,286.5 453.5,286.5C 453.5,286.833 453.5,287.167 453.5,287.5C 445.5,287.5 437.5,287.5 429.5,287.5C 429.5,303.5 429.5,319.5 429.5,335.5C 429.167,335.5 428.833,335.5 428.5,335.5C 428.5,319.5 428.5,303.5 428.5,287.5C 420.5,287.5 412.5,287.5 404.5,287.5 Z"/></g>
<g><path style="opacity:1" fill="#94ba20" d="M 453.5,287.5 C 453.5,303.5 453.5,319.5 453.5,335.5C 445.5,335.5 437.5,335.5 429.5,335.5C 429.5,319.5 429.5,303.5 429.5,287.5C 437.5,287.5 445.5,287.5 453.5,287.5 Z"/></g>
<g><path style="opacity:1" fill="#03722f" d="M 453.5,286.5 C 461.5,286.5 469.5,286.5 477.5,286.5C 477.5,302.833 477.5,319.167 477.5,335.5C 485.316,336.492 493.316,336.826 501.5,336.5C 501.5,466.5 501.5,596.5 501.5,726.5C 493.5,726.5 485.5,726.5 477.5,726.5C 477.5,685.833 477.5,645.167 477.5,604.5C 477.5,539.167 477.5,473.833 477.5,408.5C 477.5,392.5 477.5,376.5 477.5,360.5C 469.5,360.5 461.5,360.5 453.5,360.5C 445.5,360.5 437.5,360.5 429.5,360.5C 429.5,376.5 429.5,392.5 429.5,408.5C 429.167,408.5 428.833,408.5 428.5,408.5C 428.5,392.5 428.5,376.5 428.5,360.5C 428.5,352.167 428.5,343.833 428.5,335.5C 428.833,335.5 429.167,335.5 429.5,335.5C 437.5,335.5 445.5,335.5 453.5,335.5C 453.5,319.5 453.5,303.5 453.5,287.5C 453.5,287.167 453.5,286.833 453.5,286.5 Z"/></g>
<g><path style="opacity:1" fill="#fefefe" d="M 257.5,311.5 C 257.5,319.5 257.5,327.5 257.5,335.5C 208.833,335.5 160.167,335.5 111.5,335.5C 111.5,351.833 111.5,368.167 111.5,384.5C 103.5,384.5 95.5,384.5 87.5,384.5C 87.5,376.5 87.5,368.5 87.5,360.5C 79.5,360.5 71.5,360.5 63.5,360.5C 63.5,352.167 63.5,343.833 63.5,335.5C 71.5,335.5 79.5,335.5 87.5,335.5C 87.5,327.5 87.5,319.5 87.5,311.5C 144.167,311.5 200.833,311.5 257.5,311.5 Z"/></g>
<g><path style="opacity:1" fill="#03732f" d="M 282.5,311.5 C 290.5,311.5 298.5,311.5 306.5,311.5C 306.5,319.5 306.5,327.5 306.5,335.5C 298.5,335.5 290.5,335.5 282.5,335.5C 282.5,327.5 282.5,319.5 282.5,311.5 Z"/></g>
<g><path style="opacity:0.97" fill="#000000" d="M 62.5,335.5 C 62.5,359.833 62.5,384.167 62.5,408.5C 54.1667,408.5 45.8333,408.5 37.5,408.5C 37.5,384.167 37.5,359.833 37.5,335.5C 45.8333,335.5 54.1667,335.5 62.5,335.5 Z"/></g>
<g><path style="opacity:1" fill="#edeeef" d="M 257.5,311.5 C 258.492,319.316 258.826,327.316 258.5,335.5C 258.5,335.833 258.5,336.167 258.5,336.5C 258.5,344.5 258.5,352.5 258.5,360.5C 266.167,360.5 273.833,360.5 281.5,360.5C 281.5,376.5 281.5,392.5 281.5,408.5C 265.5,408.5 249.5,408.5 233.5,408.5C 225.5,408.5 217.5,408.5 209.5,408.5C 160.5,408.5 111.5,408.5 62.5,408.5C 62.5,384.167 62.5,359.833 62.5,335.5C 62.8333,335.5 63.1667,335.5 63.5,335.5C 63.5,343.833 63.5,352.167 63.5,360.5C 71.5,360.5 79.5,360.5 87.5,360.5C 87.5,368.5 87.5,376.5 87.5,384.5C 95.5,384.5 103.5,384.5 111.5,384.5C 111.5,368.167 111.5,351.833 111.5,335.5C 160.167,335.5 208.833,335.5 257.5,335.5C 257.5,327.5 257.5,319.5 257.5,311.5 Z"/></g>
<g><path style="opacity:0.98" fill="#000000" d="M 502.5,335.5 C 510.833,335.5 519.167,335.5 527.5,335.5C 527.5,474.167 527.5,612.833 527.5,751.5C 519.167,751.5 510.833,751.5 502.5,751.5C 502.5,759.5 502.5,767.5 502.5,775.5C 355.833,775.5 209.167,775.5 62.5,775.5C 62.5,758.833 62.5,742.167 62.5,725.5C 70.5,725.5 78.5,725.5 86.5,725.5C 86.5,717.5 86.5,709.5 86.5,701.5C 102.833,701.5 119.167,701.5 135.5,701.5C 135.5,661.167 135.5,620.833 135.5,580.5C 111.167,580.5 86.8333,580.5 62.5,580.5C 62.5,572.167 62.5,563.833 62.5,555.5C 95.1667,555.5 127.833,555.5 160.5,555.5C 160.5,563.5 160.5,571.5 160.5,579.5C 160.5,604.167 160.5,628.833 160.5,653.5C 160.5,677.833 160.5,702.167 160.5,726.5C 152.5,726.5 144.5,726.5 136.5,726.5C 128.167,726.5 119.833,726.5 111.5,726.5C 103.5,726.5 95.5,726.5 87.5,726.5C 87.5,734.5 87.5,742.5 87.5,750.5C 95.5,750.5 103.5,750.5 111.5,750.5C 119.833,750.5 128.167,750.5 136.5,750.5C 160.833,750.5 185.167,750.5 209.5,750.5C 217.5,750.5 225.5,750.5 233.5,750.5C 241.833,750.5 250.167,750.5 258.5,750.5C 258.5,742.5 258.5,734.5 258.5,726.5C 234.339,725.502 210.006,725.169 185.5,725.5C 185.5,668.833 185.5,612.167 185.5,555.5C 217.833,555.5 250.167,555.5 282.5,555.5C 282.5,571.5 282.5,587.5 282.5,603.5C 282.5,603.833 282.5,604.167 282.5,604.5C 282.5,653.167 282.5,701.833 282.5,750.5C 355.5,750.5 428.5,750.5 501.5,750.5C 502.5,612.334 502.833,474.001 502.5,335.5 Z M 209.5,580.5 C 225.5,580.5 241.5,580.5 257.5,580.5C 257.5,620.833 257.5,661.167 257.5,701.5C 241.5,701.5 225.5,701.5 209.5,701.5C 209.5,661.167 209.5,620.833 209.5,580.5 Z"/></g>
<g><path style="opacity:1" fill="#fefefe" d="M 258.5,336.5 C 266.167,336.5 273.833,336.5 281.5,336.5C 281.5,344.5 281.5,352.5 281.5,360.5C 273.833,360.5 266.167,360.5 258.5,360.5C 258.5,352.5 258.5,344.5 258.5,336.5 Z"/></g>
<g><path style="opacity:1" fill="#000000" d="M 282.5,335.5 C 290.5,335.5 298.5,335.5 306.5,335.5C 306.5,359.833 306.5,384.167 306.5,408.5C 298.5,408.5 290.5,408.5 282.5,408.5C 282.5,384.167 282.5,359.833 282.5,335.5 Z"/></g>
<g><path style="opacity:1" fill="#015122" d="M 477.5,335.5 C 485.833,335.5 494.167,335.5 502.5,335.5C 502.833,474.001 502.5,612.334 501.5,750.5C 501.5,742.5 501.5,734.5 501.5,726.5C 501.5,596.5 501.5,466.5 501.5,336.5C 493.316,336.826 485.316,336.492 477.5,335.5 Z"/></g>
<g><path style="opacity:1" fill="#b6b6b7" d="M 258.5,336.5 C 258.5,336.167 258.5,335.833 258.5,335.5C 266.5,335.5 274.5,335.5 282.5,335.5C 282.5,359.833 282.5,384.167 282.5,408.5C 282.167,408.5 281.833,408.5 281.5,408.5C 281.5,392.5 281.5,376.5 281.5,360.5C 281.5,352.5 281.5,344.5 281.5,336.5C 273.833,336.5 266.167,336.5 258.5,336.5 Z"/></g>
<g><path style="opacity:1" fill="#003d22" d="M 306.5,335.5 C 307.492,343.316 307.826,351.316 307.5,359.5C 315.5,359.5 323.5,359.5 331.5,359.5C 363.662,360.498 395.996,360.832 428.5,360.5C 428.5,376.5 428.5,392.5 428.5,408.5C 404.167,408.5 379.833,408.5 355.5,408.5C 347.316,408.174 339.316,408.508 331.5,409.5C 323.5,409.5 315.5,409.5 307.5,409.5C 307.5,408.833 307.167,408.5 306.5,408.5C 306.5,384.167 306.5,359.833 306.5,335.5 Z"/></g>
<g><path style="opacity:1" fill="#4b8d2a" d="M 453.5,360.5 C 453.5,376.5 453.5,392.5 453.5,408.5C 445.5,408.5 437.5,408.5 429.5,408.5C 429.5,392.5 429.5,376.5 429.5,360.5C 437.5,360.5 445.5,360.5 453.5,360.5 Z"/></g>
<g><path style="opacity:1" fill="#003e22" d="M 453.5,360.5 C 461.5,360.5 469.5,360.5 477.5,360.5C 477.5,376.5 477.5,392.5 477.5,408.5C 469.5,408.5 461.5,408.5 453.5,408.5C 453.5,392.5 453.5,376.5 453.5,360.5 Z"/></g>
<g><path style="opacity:0.984" fill="#000000" d="M 37.5,408.5 C 37.5,449.5 37.5,490.5 37.5,531.5C 29.5,531.5 21.5,531.5 13.5,531.5C 13.5,490.5 13.5,449.5 13.5,408.5C 21.5,408.5 29.5,408.5 37.5,408.5 Z"/></g>
<g><path style="opacity:1" fill="#464647" d="M 37.5,408.5 C 45.8333,408.5 54.1667,408.5 62.5,408.5C 62.5,408.833 62.5,409.167 62.5,409.5C 54.5,409.5 46.5,409.5 38.5,409.5C 38.5,441.833 38.5,474.167 38.5,506.5C 38.5,514.5 38.5,522.5 38.5,530.5C 46.5,530.5 54.5,530.5 62.5,530.5C 62.5,530.833 62.5,531.167 62.5,531.5C 54.1667,531.5 45.8333,531.5 37.5,531.5C 37.5,490.5 37.5,449.5 37.5,408.5 Z"/></g>
<g><path style="opacity:1" fill="#edefef" d="M 62.5,409.5 C 62.5,441.833 62.5,474.167 62.5,506.5C 54.5,506.5 46.5,506.5 38.5,506.5C 38.5,474.167 38.5,441.833 38.5,409.5C 46.5,409.5 54.5,409.5 62.5,409.5 Z"/></g>
<g><path style="opacity:1" fill="#e7625c" d="M 62.5,408.5 C 111.5,408.5 160.5,408.5 209.5,408.5C 177.004,409.498 144.338,409.832 111.5,409.5C 111.5,425.5 111.5,441.5 111.5,457.5C 103.5,457.5 95.5,457.5 87.5,457.5C 87.5,441.5 87.5,425.5 87.5,409.5C 79.5,409.5 71.5,409.5 63.5,409.5C 63.5,425.5 63.5,441.5 63.5,457.5C 63.5,465.833 63.5,474.167 63.5,482.5C 63.5,490.5 63.5,498.5 63.5,506.5C 63.1667,506.5 62.8333,506.5 62.5,506.5C 62.5,474.167 62.5,441.833 62.5,409.5C 62.5,409.167 62.5,408.833 62.5,408.5 Z"/></g>
<g><path style="opacity:1" fill="#c00b26" d="M 87.5,457.5 C 79.5,457.5 71.5,457.5 63.5,457.5C 63.5,441.5 63.5,425.5 63.5,409.5C 71.5,409.5 79.5,409.5 87.5,409.5C 87.5,425.5 87.5,441.5 87.5,457.5 Z"/></g>
<g><path style="opacity:1" fill="#c00a26" d="M 209.5,408.5 C 217.5,408.5 225.5,408.5 233.5,408.5C 249.325,409.496 265.325,409.83 281.5,409.5C 281.5,417.167 281.5,424.833 281.5,432.5C 273.833,432.5 266.167,432.5 258.5,432.5C 258.5,440.833 258.5,449.167 258.5,457.5C 250.167,457.5 241.833,457.5 233.5,457.5C 233.5,465.5 233.5,473.5 233.5,481.5C 184.833,481.5 136.167,481.5 87.5,481.5C 87.5,473.5 87.5,465.5 87.5,457.5C 95.5,457.5 103.5,457.5 111.5,457.5C 111.5,441.5 111.5,425.5 111.5,409.5C 144.338,409.832 177.004,409.498 209.5,408.5 Z"/></g>
<g><path style="opacity:1" fill="#edeeef" d="M 282.5,408.5 C 290.5,408.5 298.5,408.5 306.5,408.5C 306.5,441.167 306.5,473.833 306.5,506.5C 298.5,506.5 290.5,506.5 282.5,506.5C 282.5,498.167 282.5,489.833 282.5,481.5C 282.5,457.167 282.5,432.833 282.5,408.5 Z"/></g>
<g><path style="opacity:1" fill="#000000" d="M 307.5,409.5 C 315.5,409.5 323.5,409.5 331.5,409.5C 331.5,441.833 331.5,474.167 331.5,506.5C 330.508,514.316 330.174,522.316 330.5,530.5C 322.833,530.5 315.167,530.5 307.5,530.5C 307.5,490.167 307.5,449.833 307.5,409.5 Z"/></g>
<g><path style="opacity:1" fill="#fef2d6" d="M 355.5,408.5 C 379.661,409.498 403.994,409.831 428.5,409.5C 428.5,474.167 428.5,538.833 428.5,603.5C 396.167,603.5 363.833,603.5 331.5,603.5C 331.5,579.5 331.5,555.5 331.5,531.5C 331.5,523.167 331.5,514.833 331.5,506.5C 331.5,474.167 331.5,441.833 331.5,409.5C 339.316,408.508 347.316,408.174 355.5,408.5 Z"/></g>
<g><path style="opacity:1" fill="#fef7e9" d="M 428.5,409.5 C 436.833,409.5 445.167,409.5 453.5,409.5C 453.5,474.167 453.5,538.833 453.5,603.5C 445.167,603.5 436.833,603.5 428.5,603.5C 428.5,538.833 428.5,474.167 428.5,409.5 Z"/></g>
<g><path style="opacity:1" fill="#efddb7" d="M 355.5,408.5 C 379.833,408.5 404.167,408.5 428.5,408.5C 428.833,408.5 429.167,408.5 429.5,408.5C 437.5,408.5 445.5,408.5 453.5,408.5C 461.5,408.5 469.5,408.5 477.5,408.5C 477.5,473.833 477.5,539.167 477.5,604.5C 469.5,604.5 461.5,604.5 453.5,604.5C 445.5,604.5 437.5,604.5 429.5,604.5C 429.167,604.5 428.833,604.5 428.5,604.5C 387.833,604.5 347.167,604.5 306.5,604.5C 298.5,604.5 290.5,604.5 282.5,604.5C 282.5,604.167 282.5,603.833 282.5,603.5C 298.833,603.5 315.167,603.5 331.5,603.5C 363.833,603.5 396.167,603.5 428.5,603.5C 436.833,603.5 445.167,603.5 453.5,603.5C 453.5,538.833 453.5,474.167 453.5,409.5C 445.167,409.5 436.833,409.5 428.5,409.5C 403.994,409.831 379.661,409.498 355.5,408.5 Z"/></g>
<g><path style="opacity:1" fill="#ae0c1c" d="M 281.5,432.5 C 281.5,440.833 281.5,449.167 281.5,457.5C 273.833,457.5 266.167,457.5 258.5,457.5C 258.5,449.167 258.5,440.833 258.5,432.5C 266.167,432.5 273.833,432.5 281.5,432.5 Z"/></g>
<g><path style="opacity:1" fill="#c45662" d="M 233.5,408.5 C 249.5,408.5 265.5,408.5 281.5,408.5C 281.833,408.5 282.167,408.5 282.5,408.5C 282.5,432.833 282.5,457.167 282.5,481.5C 281.508,473.684 281.174,465.684 281.5,457.5C 281.5,449.167 281.5,440.833 281.5,432.5C 281.5,424.833 281.5,417.167 281.5,409.5C 265.325,409.83 249.325,409.496 233.5,408.5 Z"/></g>
<g><path style="opacity:1" fill="#940d19" d="M 258.5,457.5 C 266.167,457.5 273.833,457.5 281.5,457.5C 281.174,465.684 281.508,473.684 282.5,481.5C 282.5,489.833 282.5,498.167 282.5,506.5C 274.5,506.5 266.5,506.5 258.5,506.5C 257.508,514.316 257.174,522.316 257.5,530.5C 200.833,530.5 144.167,530.5 87.5,530.5C 87.5,522.5 87.5,514.5 87.5,506.5C 136.167,506.5 184.833,506.5 233.5,506.5C 233.5,498.167 233.5,489.833 233.5,481.5C 241.833,481.5 250.167,481.5 258.5,481.5C 258.5,473.5 258.5,465.5 258.5,457.5 Z"/></g>
<g><path style="opacity:1" fill="#ae0c1c" d="M 258.5,457.5 C 258.5,465.5 258.5,473.5 258.5,481.5C 250.167,481.5 241.833,481.5 233.5,481.5C 233.5,473.5 233.5,465.5 233.5,457.5C 241.833,457.5 250.167,457.5 258.5,457.5 Z"/></g>
<g><path style="opacity:1" fill="#940d19" d="M 63.5,482.5 C 71.5,482.5 79.5,482.5 87.5,482.5C 87.5,490.5 87.5,498.5 87.5,506.5C 87.1667,506.5 86.8333,506.5 86.5,506.5C 78.8333,506.5 71.1667,506.5 63.5,506.5C 63.5,498.5 63.5,490.5 63.5,482.5 Z"/></g>
<g><path style="opacity:1" fill="#ae0c1c" d="M 63.5,457.5 C 71.5,457.5 79.5,457.5 87.5,457.5C 87.5,465.5 87.5,473.5 87.5,481.5C 136.167,481.5 184.833,481.5 233.5,481.5C 233.5,489.833 233.5,498.167 233.5,506.5C 184.833,506.5 136.167,506.5 87.5,506.5C 87.5,498.5 87.5,490.5 87.5,482.5C 79.5,482.5 71.5,482.5 63.5,482.5C 63.5,474.167 63.5,465.833 63.5,457.5 Z"/></g>
<g><path style="opacity:1" fill="#ced0d1" d="M 38.5,506.5 C 46.5,506.5 54.5,506.5 62.5,506.5C 62.5,514.5 62.5,522.5 62.5,530.5C 54.5,530.5 46.5,530.5 38.5,530.5C 38.5,522.5 38.5,514.5 38.5,506.5 Z"/></g>
<g><path style="opacity:1" fill="#edeeef" d="M 62.5,506.5 C 62.8333,506.5 63.1667,506.5 63.5,506.5C 71.1667,506.5 78.8333,506.5 86.5,506.5C 86.5,514.5 86.5,522.5 86.5,530.5C 78.5,530.5 70.5,530.5 62.5,530.5C 62.5,522.5 62.5,514.5 62.5,506.5 Z"/></g>
<g><path style="opacity:1" fill="#edeeef" d="M 258.5,506.5 C 266.5,506.5 274.5,506.5 282.5,506.5C 282.5,514.5 282.5,522.5 282.5,530.5C 274.5,530.5 266.5,530.5 258.5,530.5C 258.5,522.5 258.5,514.5 258.5,506.5 Z"/></g>
<g><path style="opacity:1" fill="#ced0d1" d="M 282.5,506.5 C 290.5,506.5 298.5,506.5 306.5,506.5C 306.5,514.5 306.5,522.5 306.5,530.5C 298.5,530.5 290.5,530.5 282.5,530.5C 282.5,522.5 282.5,514.5 282.5,506.5 Z"/></g>
<g><path style="opacity:1" fill="#58554f" d="M 306.5,408.5 C 307.167,408.5 307.5,408.833 307.5,409.5C 307.5,449.833 307.5,490.167 307.5,530.5C 315.167,530.5 322.833,530.5 330.5,530.5C 330.174,522.316 330.508,514.316 331.5,506.5C 331.5,514.833 331.5,523.167 331.5,531.5C 323.5,531.5 315.5,531.5 307.5,531.5C 307.5,539.5 307.5,547.5 307.5,555.5C 299.167,555.5 290.833,555.5 282.5,555.5C 282.5,555.167 282.5,554.833 282.5,554.5C 290.5,554.5 298.5,554.5 306.5,554.5C 306.5,546.833 306.5,539.167 306.5,531.5C 298.5,531.5 290.5,531.5 282.5,531.5C 282.5,531.167 282.5,530.833 282.5,530.5C 290.5,530.5 298.5,530.5 306.5,530.5C 306.5,522.5 306.5,514.5 306.5,506.5C 306.5,473.833 306.5,441.167 306.5,408.5 Z"/></g>
<g><path style="opacity:0.97" fill="#000000" d="M 37.5,531.5 C 45.8333,531.5 54.1667,531.5 62.5,531.5C 62.5,539.5 62.5,547.5 62.5,555.5C 54.1667,555.5 45.8333,555.5 37.5,555.5C 37.5,547.5 37.5,539.5 37.5,531.5 Z"/></g>
<g><path style="opacity:1" fill="#ceccce" d="M 86.5,506.5 C 86.8333,506.5 87.1667,506.5 87.5,506.5C 87.5,514.5 87.5,522.5 87.5,530.5C 144.167,530.5 200.833,530.5 257.5,530.5C 257.174,522.316 257.508,514.316 258.5,506.5C 258.5,514.5 258.5,522.5 258.5,530.5C 266.5,530.5 274.5,530.5 282.5,530.5C 282.5,530.833 282.5,531.167 282.5,531.5C 281.508,538.982 281.175,546.648 281.5,554.5C 249.329,554.168 217.329,554.502 185.5,555.5C 185.167,555.5 184.833,555.5 184.5,555.5C 176.5,555.5 168.5,555.5 160.5,555.5C 128.338,554.502 96.0043,554.168 63.5,554.5C 63.8254,546.648 63.492,538.982 62.5,531.5C 62.5,531.167 62.5,530.833 62.5,530.5C 70.5,530.5 78.5,530.5 86.5,530.5C 86.5,522.5 86.5,514.5 86.5,506.5 Z"/></g>
<g><path style="opacity:1" fill="#000000" d="M 282.5,531.5 C 290.5,531.5 298.5,531.5 306.5,531.5C 306.5,539.167 306.5,546.833 306.5,554.5C 298.5,554.5 290.5,554.5 282.5,554.5C 282.5,546.833 282.5,539.167 282.5,531.5 Z"/></g>
<g><path style="opacity:1" fill="#f5e0ba" d="M 331.5,531.5 C 331.5,555.5 331.5,579.5 331.5,603.5C 315.167,603.5 298.833,603.5 282.5,603.5C 282.5,587.5 282.5,571.5 282.5,555.5C 290.833,555.5 299.167,555.5 307.5,555.5C 307.5,547.5 307.5,539.5 307.5,531.5C 315.5,531.5 323.5,531.5 331.5,531.5 Z"/></g>
<g><path style="opacity:1" fill="#9a9b9d" d="M 62.5,531.5 C 63.492,538.982 63.8254,546.648 63.5,554.5C 96.0043,554.168 128.338,554.502 160.5,555.5C 127.833,555.5 95.1667,555.5 62.5,555.5C 62.5,547.5 62.5,539.5 62.5,531.5 Z"/></g>
<g><path style="opacity:1" fill="#9a9b9d" d="M 282.5,531.5 C 282.5,539.167 282.5,546.833 282.5,554.5C 282.5,554.833 282.5,555.167 282.5,555.5C 250.167,555.5 217.833,555.5 185.5,555.5C 217.329,554.502 249.329,554.168 281.5,554.5C 281.175,546.648 281.508,538.982 282.5,531.5 Z"/></g>
<g><path style="opacity:1" fill="#b5b8b8" d="M 160.5,555.5 C 168.5,555.5 176.5,555.5 184.5,555.5C 184.5,563.5 184.5,571.5 184.5,579.5C 176.5,579.5 168.5,579.5 160.5,579.5C 160.5,571.5 160.5,563.5 160.5,555.5 Z"/></g>
<g><path style="opacity:1" fill="#edeeef" d="M 160.5,579.5 C 168.5,579.5 176.5,579.5 184.5,579.5C 184.5,604.167 184.5,628.833 184.5,653.5C 176.5,653.5 168.5,653.5 160.5,653.5C 160.5,628.833 160.5,604.167 160.5,579.5 Z"/></g>
<g><path style="opacity:1" fill="#005927" d="M 282.5,604.5 C 290.5,604.5 298.5,604.5 306.5,604.5C 306.5,645.167 306.5,685.833 306.5,726.5C 347.167,726.5 387.833,726.5 428.5,726.5C 436.833,726.5 445.167,726.5 453.5,726.5C 461.5,726.5 469.5,726.5 477.5,726.5C 485.5,726.5 493.5,726.5 501.5,726.5C 501.5,734.5 501.5,742.5 501.5,750.5C 428.5,750.5 355.5,750.5 282.5,750.5C 282.5,701.833 282.5,653.167 282.5,604.5 Z"/></g>
<g><path style="opacity:1" fill="#003e23" d="M 306.5,604.5 C 347.167,604.5 387.833,604.5 428.5,604.5C 428.5,645.167 428.5,685.833 428.5,726.5C 387.833,726.5 347.167,726.5 306.5,726.5C 306.5,685.833 306.5,645.167 306.5,604.5 Z"/></g>
<g><path style="opacity:1" fill="#4b8d2a" d="M 429.5,604.5 C 437.5,604.5 445.5,604.5 453.5,604.5C 453.5,644.833 453.5,685.167 453.5,725.5C 445.5,725.5 437.5,725.5 429.5,725.5C 429.5,685.167 429.5,644.833 429.5,604.5 Z"/></g>
<g><path style="opacity:1" fill="#003e23" d="M 453.5,604.5 C 461.5,604.5 469.5,604.5 477.5,604.5C 477.5,645.167 477.5,685.833 477.5,726.5C 469.5,726.5 461.5,726.5 453.5,726.5C 453.5,726.167 453.5,725.833 453.5,725.5C 453.5,685.167 453.5,644.833 453.5,604.5 Z"/></g>
<g><path style="opacity:1" fill="#39393a" d="M 184.5,555.5 C 184.833,555.5 185.167,555.5 185.5,555.5C 185.5,612.167 185.5,668.833 185.5,725.5C 210.006,725.169 234.339,725.502 258.5,726.5C 250.167,726.5 241.833,726.5 233.5,726.5C 225.5,726.5 217.5,726.5 209.5,726.5C 201.167,726.5 192.833,726.5 184.5,726.5C 184.5,702.167 184.5,677.833 184.5,653.5C 184.5,628.833 184.5,604.167 184.5,579.5C 184.5,571.5 184.5,563.5 184.5,555.5 Z"/></g>
<g><path style="opacity:1" fill="#cfd0d2" d="M 160.5,653.5 C 168.5,653.5 176.5,653.5 184.5,653.5C 184.5,677.833 184.5,702.167 184.5,726.5C 176.5,726.5 168.5,726.5 160.5,726.5C 160.5,702.167 160.5,677.833 160.5,653.5 Z"/></g>
<g><path style="opacity:1" fill="#357628" d="M 428.5,604.5 C 428.833,604.5 429.167,604.5 429.5,604.5C 429.5,644.833 429.5,685.167 429.5,725.5C 437.5,725.5 445.5,725.5 453.5,725.5C 453.5,725.833 453.5,726.167 453.5,726.5C 445.167,726.5 436.833,726.5 428.5,726.5C 428.5,685.833 428.5,645.167 428.5,604.5 Z"/></g>
<g><path style="opacity:1" fill="#edefef" d="M 111.5,726.5 C 111.5,734.5 111.5,742.5 111.5,750.5C 103.5,750.5 95.5,750.5 87.5,750.5C 87.5,742.5 87.5,734.5 87.5,726.5C 95.5,726.5 103.5,726.5 111.5,726.5 Z"/></g>
<g><path style="opacity:1" fill="#fefefe" d="M 111.5,726.5 C 119.833,726.5 128.167,726.5 136.5,726.5C 136.5,734.5 136.5,742.5 136.5,750.5C 128.167,750.5 119.833,750.5 111.5,750.5C 111.5,742.5 111.5,734.5 111.5,726.5 Z"/></g>
<g><path style="opacity:1" fill="#edefef" d="M 136.5,726.5 C 144.5,726.5 152.5,726.5 160.5,726.5C 168.5,726.5 176.5,726.5 184.5,726.5C 192.833,726.5 201.167,726.5 209.5,726.5C 209.5,734.5 209.5,742.5 209.5,750.5C 185.167,750.5 160.833,750.5 136.5,750.5C 136.5,742.5 136.5,734.5 136.5,726.5 Z"/></g>
<g><path style="opacity:1" fill="#ced0d1" d="M 209.5,726.5 C 217.5,726.5 225.5,726.5 233.5,726.5C 233.5,734.5 233.5,742.5 233.5,750.5C 225.5,750.5 217.5,750.5 209.5,750.5C 209.5,742.5 209.5,734.5 209.5,726.5 Z"/></g>
<g><path style="opacity:1" fill="#ebeced" d="M 233.5,726.5 C 241.833,726.5 250.167,726.5 258.5,726.5C 258.5,734.5 258.5,742.5 258.5,750.5C 250.167,750.5 241.833,750.5 233.5,750.5C 233.5,742.5 233.5,734.5 233.5,726.5 Z"/></g>
</svg>
